<svg width="1440" height="6" viewBox="0 0 1440 6" fill="none" xmlns="http://www.w3.org/2000/svg" xmlns:xlink="http://www.w3.org/1999/xlink">
<mask id="path-1-inside-1_702_2639" fill="white">
<path d="M0 0H1440V6H0V0Z"/>
</mask>
<path d="M0 0V6H1440V0V-6H0V0Z" fill="url(#pattern0_702_2639)" mask="url(#path-1-inside-1_702_2639)"/>
<defs>
<pattern id="pattern0_702_2639" patternUnits="userSpaceOnUse" viewBox="43281 41329.6 305.203 152.602" width="21.194661458333332%" height="2543.359375%" patternContentUnits="objectBoundingBox">
<g id="pattern0_702_2639_inner">
<g clip-path="url(#clip0_702_2639)">
<rect width="152.602" height="152.602" transform="translate(43281 41177)" fill="#1C2A25"/>
<path d="M43366.9 41219.3C43367.1 41219.4 43367.3 41219.5 43367.5 41219.5L43373.9 41215.6C43371.6 41216.8 43369.3 41218 43366.9 41219.3Z" stroke="#263932" stroke-width="2.47637" stroke-linecap="round" stroke-linejoin="round"/>
<path d="M43389.7 41229.2L43367.5 41219.5C43389.2 41228.9 43389.7 41229.2 43389.7 41229.2Z" stroke="#263932" stroke-width="2.47637" stroke-linecap="round" stroke-linejoin="round"/>
<path d="M43416.4 41241.8L43433.7 41249.2L43389.7 41229.2L43416.4 41241.8Z" stroke="#263932" stroke-width="2.47637" stroke-linecap="round" stroke-linejoin="round"/>
<path d="M43319 41219.9C43332.1 41213.9 43346.7 41210.5 43358.9 41215.8C43361.9 41217.1 43364.6 41218.3 43367 41219.3C43369.3 41218 43371.7 41216.8 43373.9 41215.6L43400.7 41198.9C43403.2 41197.3 43405.8 41196 43408.5 41195H43408.5C43369.3 41204 43378.2 41201.1 43345.3 41184.6L43319.8 41219.3L43319 41219.9V41219.9Z" fill="#BC6321" stroke="#263932" stroke-width="2.47637" stroke-linecap="round" stroke-linejoin="round"/>
<path d="M43319.8 41219.3L43345.3 41184.5C43344.4 41184.1 43343.4 41183.6 43342.5 41183.1C43306.3 41165.2 43285.5 41193.5 43285.5 41193.5L43291.1 41237.1C43297.8 41231.9 43307.9 41224.9 43319 41219.9L43319.8 41219.3H43319.8Z" fill="#6D876E" stroke="#263932" stroke-width="2.47637" stroke-linecap="round" stroke-linejoin="round"/>
<path d="M43366.9 41219.3L43367.5 41219.5L43389.7 41229.2C43389.7 41229.2 43397.3 41217.5 43416.1 41214.3L43427.6 41191.9C43421 41191.6 43414.5 41192.7 43408.5 41195C43405.8 41196 43403.2 41197.3 43400.7 41198.9L43366.9 41219.3Z" fill="#9A6B2F" stroke="#263932" stroke-width="2.47637" stroke-linecap="round" stroke-linejoin="round"/>
<path d="M43433.7 41249.2V41249.2L43460.9 41265.1C43428.1 41288.1 43435 41310.5 43444.8 41321.8C43452 41330.1 43464 41330.9 43474.5 41327.4C43495.3 41320.5 43482.2 41295.9 43471.2 41298.3C43458.4 41301.1 43465 41311 43465 41311C43466.8 41308.8 43468.4 41308.4 43469.8 41308.7C43471.9 41309.2 43473.1 41311.6 43472.5 41313.7C43469.5 41324.2 43450.3 41324.4 43453.9 41297.5C43457.7 41268.5 43497.6 41263.6 43497.6 41263.6C43497.6 41263.6 43478.3 41247.4 43477.7 41227.2L43443.8 41231L43433.7 41249.2H43433.7Z" fill="#99471B" stroke="#263932" stroke-width="2.47637" stroke-linecap="round" stroke-linejoin="round"/>
<path d="M43356.7 41340.8L43407.2 41327.5L43423.2 41280.1L43386.3 41292.6C43379 41312.8 43356.7 41340.8 43356.7 41340.8V41340.8Z" fill="#537765" stroke="#263932" stroke-width="2.47637" stroke-linecap="round" stroke-linejoin="round"/>
<path d="M43389.7 41229.2C43389.7 41229.2 43373.8 41252.1 43353.8 41274.1L43386.3 41292.6C43393.6 41272.4 43416.4 41241.8 43416.4 41241.8L43389.7 41229.2Z" fill="#3D6B62" stroke="#263932" stroke-width="2.47637" stroke-linecap="round" stroke-linejoin="round"/>
<path d="M43386.3 41292.6L43423.2 41280.1L43433.7 41249.2L43416.4 41241.8C43416.4 41241.8 43393.5 41272.4 43386.3 41292.6V41292.6Z" fill="#D1902D" stroke="#263932" stroke-width="2.47637" stroke-linecap="round" stroke-linejoin="round"/>
<path d="M43367.4 41219.6C43367.4 41219.6 43367.5 41219.5 43367.5 41219.5C43367.3 41219.5 43367.1 41219.4 43366.9 41219.3C43364.5 41218.3 43361.9 41217.1 43358.9 41215.8C43346.7 41210.5 43332.1 41213.9 43319 41219.9C43307.9 41224.9 43297.8 41231.9 43291.1 41237.1C43285.8 41241.1 43282.6 41244 43282.6 41244L43294.2 41288.1C43296.8 41279.7 43311.1 41241.4 43367.4 41219.6H43367.4Z" fill="#99471B" stroke="#263932" stroke-width="2.47637" stroke-linecap="round" stroke-linejoin="round"/>
<path d="M43461 41203.8C43460.9 41203.7 43460.8 41203.7 43460.7 41203.6C43452 41198.1 43440.6 41193 43427.6 41191.9L43416.1 41214.3C43425.1 41212.8 43436.5 41213.2 43450.8 41217.7L43450.8 41217.8C43450.9 41217.8 43451 41217.9 43451.1 41217.9C43451.1 41217.9 43451.2 41217.9 43451.2 41217.9C43461.5 41220.5 43470.2 41224 43474.6 41225.8C43474.6 41225.8 43474.6 41225.8 43474.7 41225.9C43474.8 41225.9 43475 41226 43475.2 41226.1C43475.2 41226.1 43475.2 41226.1 43475.3 41226.1C43475.4 41226.2 43475.5 41226.2 43475.6 41226.3C43475.7 41226.3 43475.7 41226.3 43475.8 41226.3C43475.9 41226.4 43476 41226.4 43476.1 41226.5C43476.1 41226.5 43476.2 41226.5 43476.3 41226.5C43476.3 41226.6 43476.4 41226.6 43476.5 41226.7C43476.5 41226.7 43476.6 41226.7 43476.7 41226.7C43476.7 41226.8 43476.8 41226.8 43476.8 41226.8C43476.9 41226.8 43476.9 41226.9 43477 41226.9C43477 41226.9 43477.1 41226.9 43477.1 41226.9C43477.2 41227 43477.2 41227 43477.3 41227C43477.3 41227 43477.3 41227 43477.4 41227.1C43477.4 41227.1 43477.4 41227.1 43477.4 41227.1C43477.5 41227.1 43477.5 41227.1 43477.6 41227.1C43477.6 41227.2 43477.7 41227.2 43477.7 41227.2C43477.6 41224.3 43477.9 41221.3 43478.7 41218.2C43476.7 41216 43470.4 41209.7 43461 41203.8L43461 41203.8Z" fill="#BC6321" stroke="#263932" stroke-width="2.47637" stroke-linecap="round" stroke-linejoin="round"/>
<path d="M43389.7 41229.2C43389.7 41229.2 43389.2 41228.9 43367.5 41219.5C43367.5 41219.5 43367.5 41219.5 43367.5 41219.5C43311.1 41241.4 43296.8 41279.6 43294.3 41288.1L43301 41313.6C43316.7 41310.9 43336.7 41292.8 43353.8 41274.1C43373.8 41252.1 43389.7 41229.2 43389.7 41229.2Z" fill="#D1902D" stroke="#263932" stroke-width="2.47637" stroke-linecap="round" stroke-linejoin="round"/>
<path d="M43451.8 41218.1L43450.8 41217.7C43436.5 41213.3 43425.1 41212.8 43416.2 41214.3C43397.3 41217.5 43389.7 41229.2 43389.7 41229.2L43416.4 41241.8L43433.7 41249.2L43451.8 41218.1Z" fill="#325A57" stroke="#263932" stroke-width="2.47637" stroke-linecap="round" stroke-linejoin="round"/>
</g>
</g>
<use xlink:href="#pattern0_702_2639_inner" transform="translate(0 152.602)"/>
<use xlink:href="#pattern0_702_2639_inner" transform="translate(152.602 76.3008)"/>
<use xlink:href="#pattern0_702_2639_inner" transform="translate(152.602 228.902)"/>
</pattern><clipPath id="clip0_702_2639">
<rect width="152.602" height="152.602" fill="white" transform="translate(43281 41177)"/>
</clipPath>
</defs>
</svg>
