<svg width="24" height="24" viewBox="0 0 24 24" fill="none" class="icon icon-cart" xmlns="http://www.w3.org/2000/svg">
<mask id="mask0_584_3887" style="mask-type:luminance" maskUnits="userSpaceOnUse" x="0" y="0" width="24" height="24">
<path d="M0 0H24V24H0V0Z" fill="white"/>
</mask>
<g mask="url(#mask0_584_3887)">
<path d="M5.85472 13.8757H19.44C20.3338 13.8757 21.1033 13.2449 21.2786 12.3684L22.8521 4.5007H4.88745" stroke="#993602" stroke-width="1.25" stroke-miterlimit="10"/>
<path d="M0.000244141 0.938263H2.80876C3.76979 0.938263 4.57524 1.66487 4.67382 2.62084L6.0677 15.7557C6.16637 16.7117 6.97182 17.4383 7.93285 17.4383H22.3127" stroke="#993602" stroke-width="1.25" stroke-miterlimit="10"/>
<path d="M10.1252 21.1883C10.1252 22.2238 9.28581 23.0633 8.25024 23.0633C7.21468 23.0633 6.37524 22.2238 6.37524 21.1883C6.37524 20.1527 7.21468 19.3133 8.25024 19.3133C9.28581 19.3133 10.1252 20.1527 10.1252 21.1883Z" stroke="#993602" stroke-width="1.25" stroke-miterlimit="10"/>
<path d="M21.3752 21.1883C21.3752 22.2238 20.5358 23.0633 19.5002 23.0633C18.4647 23.0633 17.6252 22.2238 17.6252 21.1883C17.6252 20.1527 18.4647 19.3133 19.5002 19.3133C20.5358 19.3133 21.3752 20.1527 21.3752 21.1883Z" stroke="#993602" stroke-width="1.25" stroke-miterlimit="10"/>
</g>
</svg>
